<?xml version="1.0" standalone="no"?>
<!DOCTYPE svg PUBLIC "-//W3C//DTD SVG 20010904//EN"
 "http://www.w3.org/TR/2001/REC-SVG-20010904/DTD/svg10.dtd">
<svg version="1.0" xmlns="http://www.w3.org/2000/svg"
 width="700.000000pt" height="700.000000pt" viewBox="0 0 700.000000 700.000000"
 preserveAspectRatio="xMidYMid meet">
<metadata>
Created by potrace 1.14, written by Peter Selinger 2001-2017
</metadata>
<g transform="translate(0.000000,700.000000) scale(0.100000,-0.100000)"
fill="#000000" stroke="none">
<path d="M1527 5685 c-1 -5 -3 -901 -2 -1990 l0 -1980 511 -3 c481 -2 512 -1
515 15 3 10 4 361 4 781 -1 419 2 762 5 762 4 0 25 -19 47 -42 22 -24 352
-351 733 -728 381 -377 716 -709 744 -737 l51 -53 645 0 645 1 -517 512 c-284
282 -760 753 -1057 1048 l-541 536 172 171 c95 94 243 239 328 322 85 84 362
356 615 605 253 249 535 527 628 617 92 90 167 166 167 168 0 3 -267 6 -594 5
l-593 0 -199 -197 c-110 -108 -256 -252 -325 -320 -69 -67 -309 -303 -533
-523 -224 -220 -411 -401 -415 -403 -4 -1 -7 323 -7 720 l0 723 -512 0 c-343
1 -513 -3 -515 -10z"/>
</g>
</svg>
